<?xml version="1.0" encoding="UTF-8" standalone="no"?>
<svg
   viewBox="0 0 36 36"
   version="1.1"
   id="svg7"
   sodipodi:docname="stretching-cat-black.svg"
   inkscape:version="1.3 (0e150ed6c4, 2023-07-21)"
   xmlns:inkscape="http://www.inkscape.org/namespaces/inkscape"
   xmlns:sodipodi="http://sodipodi.sourceforge.net/DTD/sodipodi-0.dtd"
   xmlns="http://www.w3.org/2000/svg"
   xmlns:svg="http://www.w3.org/2000/svg">
  <defs
     id="defs7" />
  <sodipodi:namedview
     id="namedview7"
     pagecolor="#ffffff"
     bordercolor="#666666"
     borderopacity="1.0"
     inkscape:showpageshadow="2"
     inkscape:pageopacity="0.0"
     inkscape:pagecheckerboard="0"
     inkscape:deskcolor="#d1d1d1"
     showguides="true"
     inkscape:zoom="11.313709"
     inkscape:cx="4.2868349"
     inkscape:cy="27.179417"
     inkscape:window-width="1920"
     inkscape:window-height="986"
     inkscape:window-x="-11"
     inkscape:window-y="-11"
     inkscape:window-maximized="1"
     inkscape:current-layer="svg7" />
  <path
     fill="#f18f26"
     d="m 11.544722,25.254248 c 0,0 -1.87045,3.425341 -3.5874235,5.222063 C 6.2403251,32.273033 4.2363997,32.680718 3.8196999,33.349377 1.7345091,33.399868 1.691,35.364 2.064,35.364 h 2.094 c 1.337,0 3.8963858,-2.064586 6.572093,-5.941365 3.054108,-4.425036 0.814629,-4.168387 0.814629,-4.168387 z M 26.2075,25.92225 c 0,0 0.334352,2.344996 5e-4,4.36225 -0.184745,1.116297 -0.749,2.0285 -0.855,2.9615 -1.832,0 -1.839,1.985 -1.305,1.985 h 1.856 c 0.923,0 3.001,-3.158 3.379,-7.281 0.379,-4.122 -3.0755,-2.02775 -3.0755,-2.02775 z"
     id="path1"
     sodipodi:nodetypes="czcsssccscsscc"
     style="fill:#ffffff;fill-opacity:1;stroke:#000000;stroke-opacity:1" />
  <path
     fill="#ffcc4e"
     d="m 33.65625,18.697 c 0.179104,2.346664 -0.01435,3.888523 -0.8032,6.144457 -0.182534,0.522006 0.173916,1.081876 0.707107,1.224744 0.533191,0.142869 1.081618,-0.172949 1.224745,-0.707106 C 35.251812,23.616565 35.824443,22.11318 35.658,17.60325 35.5955,15.90975 33.775,12.284 29.947,12.429 29.783,12.356 29.602,12.325 29.438,12.237 22.199,8.32 15.981,23.139 14.212,21.947 12.46,20.765 13.673,18.692 11.388,16.704 c -0.33,-1.841 -1.073,-4.477 -1.794,-4.477 -0.549,0 -1.265,1.825 -1.74,3.656 -0.591,-1.381 -1.363,-2.756 -1.86,-2.756 -0.64,0 -1.278,2.273 -1.594,4.235 -1.68,1.147 -2.906,2.809 -2.906,4.765 0,2.7 4.05,3.357 5.4,3.411 1.35,0.054 3.023,-0.438 3.585,1.072 0.742166,4.367 -2.7970505,5.447016 -5.0810291,7.160903 -1.649,0 -1.804,2.111 -1.348,2.111 0.713,0 1.953,-0.003 2.225,0 1.381,0.014 4.0494121,-2.791185 5.7345361,-4.301514 1.155865,-1.03597 2.915794,-3.459656 2.915794,-3.459656 0,0 4.399705,-0.715051 8.30456,-3.036705 2.132121,-1.267665 3.699608,2.236381 3.871838,4.652526 0.107288,1.505085 -0.225563,3.128223 -0.408427,4.097301 -1.589,0 -1.545,2.037 -1.084,2.037 0.787,0 1.801,0.014 2.183,0 1.468,-0.055 1.717897,-5.435788 2.49967,-7.633175 C 31.057587,26.085622 33.117,18.229 31.621,15.01 c 1.246444,0.229591 1.91098,2.058776 2.03525,3.687 z"
     id="path2"
     sodipodi:nodetypes="sssssccccscscssccscscsscscscs"
     style="stroke:#000000;stroke-opacity:1;fill:#ffffff;fill-opacity:1" />
  <circle
     fill="#292f33"
     cx="5.5900731"
     cy="19.717508"
     r="0.89999998"
     id="circle2" />
  <path
     fill="#e75a70"
     d="m 2.984,20.86 c -0.677,0.423 -0.677,1.777 -1.015,1.777 -0.338,0 -1.015,-0.796 -1.015,-1.777 -0.001,-0.981 2.862,-0.52 2.03,0 z"
     id="path3"
     style="fill:#000000;fill-opacity:1" />
  <path
     fill="#fee7b8"
     d="m 5.929327,23.878358 c -0.027431,-0.04005 -0.068522,-0.06856 -0.1202526,-0.07987 -0.018124,-0.0034 -1.5176548,-0.388725 -2.2813721,-1.137401 -0.098845,-0.0968 -0.3224548,-0.113282 -0.4548489,0.01273 -0.1323946,0.126015 -0.1227431,0.344512 -0.023899,0.441314 1.0991031,1.090566 2.5334198,1.341265 2.6104919,1.356913 0.1391766,0.02814 0.2541068,-0.09775 0.3194172,-0.26777 0.041263,-0.106342 -0.00294,-0.256967 -0.04954,-0.325916 z m 0.4882385,-2.335664 c -0.040565,-0.02719 -0.089541,-0.03732 -0.1418037,-0.0271 -0.017728,0.0033 -1.550406,0.238123 -2.543751,-0.162923 -0.1280086,-0.05164 -0.3410098,0.0213 -0.4147234,0.193159 -0.07332,0.170939 0.019584,0.372916 0.1481178,0.425871 1.4357912,0.589732 2.8546572,0.25493 2.932527,0.238278 0.1398582,-0.02919 0.1960982,-0.193356 0.1919518,-0.379025 -0.00285,-0.117651 -0.1019527,-0.241765 -0.1723191,-0.288268 z"
     id="path4"
     style="fill:#000000;fill-opacity:1" />
  <path
     fill="#f18f26"
     d="m 7.854,15.881 c 0,0 0.372,-0.039 0.859,0.033 0.217,-0.46 0.585,-0.887 0.585,-0.887 0,0 0.281,0.668 0.386,1.179 0.025,0.12 0.218,0.117 0.322,0.189 0,0 0.038,-3.463 -0.863,-3.836 10e-4,-0.002 -0.755,1.124 -1.289,3.322 z M 4.399,17.36 c 0,0 0.384,-0.267 0.883,-0.574 0.217,-0.624 0.568,-1.333 0.568,-1.333 0,0 0.307,0.602 0.345,0.81 0.21,-0.114 0.21,-0.106 0.403,-0.19 0,0 -0.114,-2.286 -1.099,-2.527 0,0 -0.732,1.372 -1.1,3.814 z"
     id="path5"
     style="fill:#000000;fill-opacity:1" />
  <path
     fill="#f18f26"
     d="m 16.124819,20.628186 c 0.787135,0.252926 3.058031,0.214021 3.209944,-0.162417 0.147545,-0.365628 -0.602708,-2.03876 -1.19278,-2.409056 -0.844663,1.087046 -1.786131,2.280986 -2.017164,2.571473 z m 7.017268,-2.477803 c 0.580436,-0.265078 -0.746071,-3.11611 -1.512545,-3.970898 -1.07613,0.901942 -1.894737,1.926942 -2.67143,2.864991 0.917912,0.660349 3.622711,1.361531 4.183975,1.105907 z M 22.84725,13.150724 c 0.468996,0.551847 1.787069,1.357087 2.296531,1.216394 0.509461,-0.140693 0.665624,-1.911792 0.231081,-2.546105 -1.014153,0.318091 -1.738542,0.750627 -2.527578,1.329711 z"
     id="path7"
     sodipodi:nodetypes="csccccccczccc"
     inkscape:transform-center-x="-3.9258153"
     inkscape:transform-center-y="-3.9021862"
     style="fill:none;fill-opacity:1;stroke:#000000;stroke-opacity:1" />
</svg>
